<?xml version="1.0" standalone="no"?>
<!DOCTYPE svg PUBLIC "-//W3C//DTD SVG 20010904//EN"
 "http://www.w3.org/TR/2001/REC-SVG-20010904/DTD/svg10.dtd">
<svg version="1.0" xmlns="http://www.w3.org/2000/svg"
 width="512.000000pt" height="512.000000pt" viewBox="0 0 512.000000 512.000000"
 preserveAspectRatio="xMidYMid meet">

<g transform="translate(0.000000,512.000000) scale(0.100000,-0.100000)"
fill="#FFFFFF" stroke="none">
<path d="M3238 4925 c-312 -107 -580 -201 -596 -209 -17 -9 -41 -30 -54 -48
l-23 -33 0 -540 c0 -600 0 -601 71 -815 74 -223 199 -415 404 -620 194 -195
399 -344 640 -465 132 -67 167 -72 250 -36 131 56 366 202 515 319 110 86 323
308 397 412 125 177 212 373 254 575 17 82 19 139 19 630 l0 540 -23 33 c-13
18 -38 40 -55 49 -62 31 -1169 403 -1200 402 -18 0 -287 -88 -599 -194z m1190
-667 c64 -16 134 -86 151 -151 13 -55 7 -108 -19 -153 -10 -17 -155 -206 -324
-421 -338 -430 -344 -436 -445 -437 -33 0 -70 7 -91 17 -19 9 -127 96 -240
192 -218 186 -260 237 -260 312 0 157 158 267 295 204 22 -10 88 -59 147 -109
58 -51 110 -92 115 -92 4 1 112 134 238 296 226 290 263 329 329 344 45 11 52
11 104 -2z"/>
<path d="M162 4261 c-58 -15 -108 -56 -136 -112 -43 -88 -30 -176 39 -244 61
-62 84 -65 417 -65 l294 0 53 -26 c33 -17 62 -41 78 -65 20 -30 81 -261 277
-1047 287 -1146 271 -1097 407 -1233 59 -60 94 -86 161 -118 155 -75 92 -72
1376 -69 l1147 3 73 27 c148 54 271 152 344 273 50 84 59 113 142 438 66 258
72 287 53 270 -12 -10 -48 -41 -79 -70 -76 -68 -264 -208 -362 -269 -69 -44
-80 -55 -97 -98 -22 -60 -61 -102 -114 -127 -38 -18 -90 -19 -1145 -18 l-1105
0 -45 23 c-86 43 -83 36 -265 766 -91 366 -168 673 -171 683 -5 16 16 17 351
17 335 0 356 1 351 18 -21 68 -50 214 -60 302 l-12 105 -370 3 -371 2 -26 103
c-15 56 -46 140 -69 187 -76 155 -227 278 -403 326 -49 14 -119 18 -380 20
-176 2 -335 -1 -353 -5z"/>
<path d="M2210 830 c-165 -61 -273 -200 -287 -371 -11 -124 38 -250 132 -338
213 -201 547 -140 676 124 32 67 34 75 34 180 0 103 -2 114 -32 177 -44 93
-109 160 -201 205 -68 34 -83 38 -171 40 -77 3 -107 -1 -151 -17z"/>
<path d="M3710 832 c-73 -24 -125 -59 -183 -121 -155 -166 -149 -420 14 -584
246 -246 659 -111 719 234 24 136 -26 275 -134 377 -84 78 -148 104 -271 109
-68 2 -104 -1 -145 -15z"/>
</g>
</svg>
